<svg width="30" height="30" viewBox="0 0 30 30" fill="none" xmlns="http://www.w3.org/2000/svg">
<path d="M1.17188 13.8281H13.8281V1.17188C13.8281 0.524648 14.3528 0 15 0C15.6472 0 16.1719 0.524648 16.1719 1.17188V13.8281H28.8281C29.4754 13.8281 30 14.3528 30 15C30 15.6472 29.4754 16.1719 28.8281 16.1719H16.1719V28.8281C16.1719 29.4754 15.6472 30 15 30C14.3528 30 13.8281 29.4754 13.8281 28.8281V16.1719H1.17188C0.524649 16.1719 0 15.6472 0 15C0 14.3528 0.524649 13.8281 1.17188 13.8281Z" fill="currentColor"/>
</svg>
