<svg xmlns="http://www.w3.org/2000/svg" xmlns:xlink="http://www.w3.org/1999/xlink"><symbol id="icon-check" viewBox="0 0 12 10"><path d="M4.751 8.983a.543.543 0 01-.77 0L.906 5.908a.817.817 0 010-1.155l.385-.386a.817.817 0 011.155 0l1.92 1.92L9.554 1.1a.817.817 0 011.155 0l.385.385c.32.319.32.836 0 1.155L4.751 8.983z" fill="#fff"/></symbol><symbol id="icon-cross" viewBox="0 0 9 8">
<path d="M8.5 0.942702L7.5573 0L4.49999 3.05729L1.4427 0L0.5 0.942702L3.55729 3.99999L0.5 7.0573L1.4427 8L4.49999 4.94271L7.55728 8L8.49998 7.0573L5.44271 3.99999L8.5 0.942702Z" fill="currentColor"/>
</symbol><symbol id="icon-metro" viewBox="0 0 16 12">
<path d="M14.8992 9.96333L11.1616 0.5L8 6.03201L4.8512 0.5L1.1008 9.96333H0V11.3976H5.6576V9.96333H4.8128L5.632 7.6071L8 11.5L10.368 7.6071L11.1872 9.96333H10.3424V11.3976H16V9.96333H14.8992Z" fill="#FF0013"/>
</symbol><symbol id="icon-plus" viewBox="0 0 30 30">
<path d="M1.17188 13.8281H13.8281V1.17188C13.8281 0.524648 14.3528 0 15 0C15.6472 0 16.1719 0.524648 16.1719 1.17188V13.8281H28.8281C29.4754 13.8281 30 14.3528 30 15C30 15.6472 29.4754 16.1719 28.8281 16.1719H16.1719V28.8281C16.1719 29.4754 15.6472 30 15 30C14.3528 30 13.8281 29.4754 13.8281 28.8281V16.1719H1.17188C0.524649 16.1719 0 15.6472 0 15C0 14.3528 0.524649 13.8281 1.17188 13.8281Z" fill="currentColor"/>
</symbol><symbol id="icon-up-arrow" viewBox="0 0 13 8">
<path d="M6.036 0.611083L0.191897 6.45712C-0.0639745 6.71364 -0.0639745 7.12925 0.191897 7.38642C0.44777 7.64294 0.863375 7.64294 1.11925 7.38642L6.49964 2.00408L11.88 7.38577C12.1359 7.64229 12.5515 7.64229 12.808 7.38577C13.0639 7.12925 13.0639 6.713 12.808 6.45648L6.96399 0.610435C6.71076 0.357856 6.28863 0.357856 6.036 0.611083Z" fill="currentColor"/>
</symbol><symbol id="icon-walking" viewBox="0 0 10 17">
<path d="M4.63987 3.57246C5.48831 3.57246 6.1761 2.88467 6.1761 2.03623C6.1761 1.18779 5.48831 0.5 4.63987 0.5C3.79143 0.5 3.10364 1.18779 3.10364 2.03623C3.10364 2.88467 3.79143 3.57246 4.63987 3.57246Z" fill="#AFAFAF"/>
<path d="M8.86701 7.37373C7.60193 6.64142 6.56392 5.65223 5.69015 4.48854C5.1411 3.71641 3.68949 3.75672 3.09963 4.46425C2.20233 5.33727 1.44097 6.23708 0.837096 7.13739C0.590238 7.50617 0.68838 8.00515 1.05692 8.25201C1.19437 8.34414 1.34934 8.3882 1.50331 8.3882C1.76219 8.3882 2.01656 8.26327 2.17129 8.03194C2.43642 7.63711 2.73711 7.24104 3.07009 6.84671C3.05732 7.68118 3.09913 9.18686 3.12016 9.8636C3.12717 10.0889 3.07585 10.3092 2.9712 10.5093C2.14299 12.0908 1.61322 13.5873 1.07544 15.4179C0.943751 15.8648 1.19987 16.3338 1.64652 16.4652C1.74767 16.495 1.84982 16.505 1.94846 16.4975C2.28846 16.4714 2.5924 16.2399 2.69404 15.8939C3.19027 14.2059 3.66971 12.8392 4.41755 11.3921C4.4556 11.3936 4.49366 11.3936 4.53222 11.3918C5.00966 12.8164 5.48735 14.2417 5.96555 15.6663C6.3128 16.7045 7.92389 16.1653 7.57564 15.1267C7.05313 13.5692 6.53137 12.0125 6.01061 10.4552C5.98032 10.3658 5.90696 10.0158 5.8967 9.90165C5.81057 8.94226 5.77928 7.98587 5.78854 7.02823C6.52161 7.7305 7.33454 8.33963 8.2376 8.86289C9.13816 9.38565 9.75556 7.88873 8.86701 7.37373Z" fill="#AFAFAF"/>
</symbol></svg>